<?xml version="1.0" encoding="utf-8"?>
<!-- Generator: Adobe Illustrator 15.1.0, SVG Export Plug-In . SVG Version: 6.00 Build 0)  -->
<!DOCTYPE svg PUBLIC "-//W3C//DTD SVG 1.1//EN" "http://www.w3.org/Graphics/SVG/1.1/DTD/svg11.dtd">
<svg version="1.1" id="Layer_1" xmlns="http://www.w3.org/2000/svg" xmlns:xlink="http://www.w3.org/1999/xlink" x="0px" y="0px"
	 width="315px" height="243px" viewBox="243.5 177.5 315 243" enable-background="new 243.5 177.5 315 243" xml:space="preserve">
<g>
	<path fill="#007580" stroke="#007580" stroke-width="7.2" stroke-linecap="round" stroke-linejoin="round" d="M248.521,284.642
		c20.312-8.053,80.461-20.739,151.514-20.739c70.84,0,130.848,12.615,151.372,20.668l-0.071,0.071
		c-20.453-8.053-80.532-13.897-151.371-13.897c-71.054,0-131.275,5.844-151.515,13.968L248.521,284.642z"/>
	<polygon fill="#007580" stroke="#007580" stroke-width="7.2" stroke-linecap="round" stroke-linejoin="round" points="
		314.443,181.732 307.673,308.588 321.784,308.588 	"/>
	<polygon fill="#007580" stroke="#007580" stroke-width="7.2" stroke-linecap="round" stroke-linejoin="round" points="
		484.915,183.157 478.145,310.013 492.256,310.013 	"/>
</g>
<g>
	<path fill="#007580" d="M256.29,385.414h4.49v30.858h14.752v3.777H256.29V385.414z"/>
	<path fill="#007580" d="M290.64,385.414v34.564h-4.418v-34.564H290.64z"/>
	<path fill="#007580" d="M304.181,385.414h4.49v30.858h14.752v3.777h-19.242V385.414z"/>
	<path fill="#007580" d="M334.042,385.414h4.49v30.858h14.752v3.777h-19.242V385.414z"/>
	<path fill="#007580" d="M381.934,403.801h-13.469v12.472h14.966v3.777h-19.456v-34.564h18.672v3.777h-14.182v10.903h13.469V403.801
		z"/>
	<path fill="#007580" d="M394.904,385.913c1.924-0.428,5.061-0.713,8.125-0.713c4.489,0,7.34,0.784,9.479,2.494
		c1.781,1.354,2.851,3.421,2.851,6.129c0,3.35-2.21,6.271-5.845,7.626v0.071c3.279,0.855,7.127,3.563,7.127,8.694
		c0,2.993-1.211,5.202-2.922,6.913c-2.423,2.209-6.343,3.207-11.973,3.207c-3.064,0-5.416-0.214-6.913-0.428v-33.994H394.904z
		 M399.395,400.023h4.062c4.704,0,7.483-2.494,7.483-5.772c0-4.063-3.064-5.63-7.626-5.63c-2.066,0-3.207,0.143-3.919,0.285V400.023
		z M399.395,416.629c0.854,0.143,2.138,0.214,3.777,0.214c4.632,0,8.908-1.71,8.908-6.699c0-4.703-4.063-6.699-8.908-6.699h-3.706
		v13.185H399.395z"/>
	<path fill="#007580" d="M431.893,409.146l-3.563,10.904h-4.633l11.759-34.564h5.417l11.83,34.564h-4.774l-3.706-10.904H431.893z
		 M443.224,405.654l-3.421-9.978c-0.784-2.281-1.283-4.276-1.781-6.343h-0.071c-0.499,2.066-1.069,4.133-1.711,6.271l-3.421,9.978
		h10.405V405.654z"/>
	<path fill="#007580" d="M480.282,403.801h-13.469l4.275,12.472h14.967l1.282,3.777h-19.385l-11.901-34.564h18.672l1.283,3.777
		h-14.183l3.777,10.903h13.47L480.282,403.801z"/>
	<path fill="#007580" d="M495.035,385.414h4.489v30.858h14.753v3.777h-19.242V385.414z"/>
	<path fill="#007580" d="M527.034,389.263h-10.548v-3.777h25.585v3.777h-10.548v30.787h-4.489V389.263L527.034,389.263z"/>
</g>
<g>
	<path fill="#007580" d="M265.34,357.833h-6.913v6.414h7.697v1.925h-9.977v-17.746h9.621v1.925h-7.341v5.63h6.913V357.833z"/>
	<path fill="#007580" d="M271.754,348.64c1.14-0.214,2.851-0.356,4.418-0.356c2.423,0,4.063,0.428,5.131,1.426
		c0.926,0.784,1.425,1.995,1.425,3.35c0,2.352-1.497,3.92-3.35,4.562v0.071c1.354,0.498,2.209,1.71,2.637,3.563
		c0.57,2.495,0.998,4.205,1.354,4.847h-2.352c-0.285-0.499-0.712-1.995-1.211-4.276c-0.499-2.423-1.497-3.35-3.563-3.421h-2.138
		v7.697h-2.28V348.64H271.754z M274.035,356.765h2.352c2.423,0,3.991-1.354,3.991-3.35c0-2.28-1.639-3.278-4.063-3.35
		c-1.14,0-1.924,0.071-2.28,0.214V356.765z"/>
	<path fill="#007580" d="M290.854,348.426v7.412h8.624v-7.412h2.352v17.746h-2.352v-8.339h-8.624v8.339h-2.281v-17.746H290.854z"/>
	<path fill="#007580" d="M312.306,366.172l-5.773-17.746h2.495l2.779,8.767c0.784,2.423,1.425,4.561,1.924,6.628h0.071
		c0.499-2.067,1.211-4.276,1.996-6.628l2.993-8.767h2.423l-6.343,17.746H312.306z"/>
	<path fill="#007580" d="M334.969,357.833h-6.913v6.414h7.697v1.925h-9.978v-17.746h9.621v1.925h-7.34v5.63h6.913V357.833z"/>
	<path fill="#007580" d="M341.383,348.64c1.14-0.214,2.851-0.356,4.418-0.356c2.423,0,4.062,0.428,5.131,1.426
		c0.926,0.784,1.425,1.995,1.425,3.35c0,2.352-1.497,3.92-3.35,4.562v0.071c1.354,0.498,2.209,1.71,2.637,3.563
		c0.57,2.495,0.998,4.205,1.354,4.847h-2.352c-0.285-0.499-0.713-1.995-1.212-4.276c-0.499-2.423-1.497-3.35-3.563-3.421h-2.138
		v7.697h-2.28V348.64H341.383z M343.663,356.765h2.352c2.423,0,3.991-1.354,3.991-3.35c0-2.28-1.639-3.278-4.062-3.35
		c-1.141,0-1.924,0.071-2.281,0.214V356.765z"/>
	<path fill="#007580" d="M362.478,366.172l-5.772-17.746h2.494l2.78,8.767c0.784,2.423,1.425,4.561,1.924,6.628h0.071
		c0.499-2.067,1.212-4.276,1.996-6.628l2.993-8.767h2.423l-6.343,17.746H362.478z"/>
	<path fill="#007580" d="M375.662,363.393c0.998,0.641,2.566,1.14,4.134,1.14c2.352,0,3.706-1.211,3.706-3.064
		c0-1.639-0.926-2.637-3.35-3.563c-2.922-0.997-4.704-2.565-4.704-5.06c0-2.779,2.281-4.846,5.773-4.846
		c1.853,0,3.136,0.427,3.919,0.854l-0.641,1.854c-0.57-0.285-1.782-0.855-3.35-0.855c-2.423,0-3.35,1.426-3.35,2.637
		c0,1.64,1.069,2.494,3.563,3.421c2.993,1.141,4.561,2.637,4.561,5.202c0,2.709-1.996,5.132-6.2,5.132
		c-1.71,0-3.563-0.499-4.562-1.141L375.662,363.393z"/>
	<path fill="#007580" d="M394.477,360.613l-1.853,5.559h-2.352l6.058-17.746h2.779l6.058,17.746h-2.423l-1.925-5.559H394.477z
		 M400.32,358.831l-1.71-5.131c-0.428-1.141-0.642-2.21-0.927-3.278h-0.071c-0.285,1.068-0.57,2.138-0.926,3.207l-1.711,5.131h5.345
		V358.831z"/>
	<path fill="#007580" d="M410.369,348.426h2.281v8.553h0.071c0.498-0.713,0.926-1.354,1.425-1.925l5.416-6.699h2.852L416,355.909
		l6.912,10.263h-2.708l-5.844-8.694l-1.71,1.924v6.771h-2.281V348.426L410.369,348.426z"/>
	<path fill="#007580" d="M430.396,360.613l-1.853,5.559h-2.353l6.058-17.746h2.78l6.058,17.746h-2.424l-1.924-5.559H430.396z
		 M436.239,358.831l-1.71-5.131c-0.428-1.141-0.642-2.21-0.927-3.278h-0.071c-0.285,1.068-0.57,2.138-0.927,3.207l-1.71,5.131h5.345
		V358.831z"/>
	<path fill="#007580" d="M446.359,348.64c1.426-0.214,3.064-0.356,4.847-0.356c3.278,0,5.63,0.784,7.197,2.21
		c1.568,1.425,2.495,3.492,2.495,6.414s-0.927,5.273-2.566,6.913c-1.639,1.639-4.418,2.565-7.839,2.565
		c-1.64,0-2.993-0.071-4.134-0.214V348.64z M448.64,364.39c0.57,0.071,1.426,0.143,2.353,0.143c4.917,0,7.554-2.708,7.554-7.554
		c0-4.205-2.352-6.842-7.198-6.842c-1.211,0-2.066,0.071-2.708,0.214V364.39z"/>
	<path fill="#007580" d="M475.722,357.833h-6.913v6.414h7.697v1.925h-9.978v-17.746h9.621v1.925h-7.341v5.63h6.913V357.833
		L475.722,357.833z"/>
	<path fill="#007580" d="M497.102,358.403c-0.143-2.494-0.285-5.487-0.285-7.696h-0.071c-0.641,2.066-1.354,4.347-2.209,6.771
		l-3.136,8.623h-1.71l-2.852-8.48c-0.854-2.495-1.567-4.775-2.066-6.913h-0.071c-0.071,2.209-0.214,5.202-0.356,7.839l-0.499,7.626
		h-2.209l1.212-17.746h2.922l3.064,8.624c0.713,2.209,1.354,4.133,1.781,5.986h0.071c0.428-1.782,1.069-3.777,1.854-5.986
		l3.136-8.624h2.922l1.14,17.746h-2.209L497.102,358.403z"/>
	<path fill="#007580" d="M508.291,348.426v17.746h-2.281v-17.746H508.291z"/>
	<path fill="#007580" d="M524.112,357.833h-6.913v6.414h7.697v1.925h-9.978v-17.746h9.621v1.925h-7.341v5.63h6.913V357.833z"/>
	<path fill="#007580" d="M534.304,350.351h-5.417v-1.925h13.185v1.925h-5.416v15.821h-2.352V350.351z"/>
</g>
</svg>
